<mxfile host="app.diagrams.net" modified="2021-09-11T11:42:53.709Z" agent="5.0 (Windows NT 10.0; Win64; x64) AppleWebKit/537.36 (KHTML, like Gecko) Chrome/93.0.4577.63 Safari/537.36" etag="V0kNiQnCaoKKKMAuFNFq" version="14.8.1" type="github">
  <diagram id="hpMIdlyiVsZwORbXUBZ7" name="Page-1">
    <mxGraphModel dx="1490" dy="620" grid="1" gridSize="10" guides="1" tooltips="1" connect="1" arrows="1" fold="1" page="1" pageScale="1" pageWidth="827" pageHeight="1169" math="0" shadow="0">
      <root>
        <mxCell id="0" />
        <mxCell id="1" parent="0" />
        <mxCell id="rTYvhZJUCBLY7WH3uyob-29" style="edgeStyle=orthogonalEdgeStyle;rounded=0;orthogonalLoop=1;jettySize=auto;html=1;" parent="1" source="rTYvhZJUCBLY7WH3uyob-2" target="rTYvhZJUCBLY7WH3uyob-21" edge="1">
          <mxGeometry relative="1" as="geometry">
            <Array as="points">
              <mxPoint x="190" y="392" />
              <mxPoint x="190" y="230" />
            </Array>
          </mxGeometry>
        </mxCell>
        <mxCell id="rTYvhZJUCBLY7WH3uyob-2" value="" style="outlineConnect=0;fontColor=#232F3E;gradientColor=none;fillColor=#232F3E;strokeColor=none;dashed=0;verticalLabelPosition=bottom;verticalAlign=top;align=center;html=1;fontSize=12;fontStyle=0;aspect=fixed;pointerEvents=1;shape=mxgraph.aws4.client;" parent="1" vertex="1">
          <mxGeometry x="20" y="360" width="66.72" height="65" as="geometry" />
        </mxCell>
        <mxCell id="rTYvhZJUCBLY7WH3uyob-3" value="AWS Cloud" style="points=[[0,0],[0.25,0],[0.5,0],[0.75,0],[1,0],[1,0.25],[1,0.5],[1,0.75],[1,1],[0.75,1],[0.5,1],[0.25,1],[0,1],[0,0.75],[0,0.5],[0,0.25]];outlineConnect=0;gradientColor=none;html=1;whiteSpace=wrap;fontSize=12;fontStyle=0;shape=mxgraph.aws4.group;grIcon=mxgraph.aws4.group_aws_cloud_alt;strokeColor=#232F3E;fillColor=none;verticalAlign=top;align=left;spacingLeft=30;fontColor=#232F3E;dashed=0;" parent="1" vertex="1">
          <mxGeometry x="150" y="40" width="650" height="640" as="geometry" />
        </mxCell>
        <mxCell id="rTYvhZJUCBLY7WH3uyob-4" value="VPC" style="points=[[0,0],[0.25,0],[0.5,0],[0.75,0],[1,0],[1,0.25],[1,0.5],[1,0.75],[1,1],[0.75,1],[0.5,1],[0.25,1],[0,1],[0,0.75],[0,0.5],[0,0.25]];outlineConnect=0;gradientColor=none;html=1;whiteSpace=wrap;fontSize=12;fontStyle=0;shape=mxgraph.aws4.group;grIcon=mxgraph.aws4.group_vpc;strokeColor=#1A1A1A;fillColor=none;verticalAlign=top;align=left;spacingLeft=30;fontColor=#AAB7B8;dashed=0;" parent="1" vertex="1">
          <mxGeometry x="280" y="80" width="480" height="560" as="geometry" />
        </mxCell>
        <mxCell id="rTYvhZJUCBLY7WH3uyob-5" value="Availability Zone" style="fillColor=none;strokeColor=#147EBA;dashed=1;verticalAlign=top;fontStyle=0;fontColor=#147EBA;" parent="1" vertex="1">
          <mxGeometry x="320" y="120" width="400" height="480" as="geometry" />
        </mxCell>
        <mxCell id="rTYvhZJUCBLY7WH3uyob-18" value="" style="group;fillColor=#9C9C9C;strokeColor=#1A1A1A;" parent="1" vertex="1" connectable="0">
          <mxGeometry x="360" y="360" width="320" height="200" as="geometry" />
        </mxCell>
        <mxCell id="rTYvhZJUCBLY7WH3uyob-7" value="&lt;font color=&quot;#000000&quot;&gt;Private subnet&lt;/font&gt;" style="points=[[0,0],[0.25,0],[0.5,0],[0.75,0],[1,0],[1,0.25],[1,0.5],[1,0.75],[1,1],[0.75,1],[0.5,1],[0.25,1],[0,1],[0,0.75],[0,0.5],[0,0.25]];outlineConnect=0;gradientColor=none;html=1;whiteSpace=wrap;fontSize=12;fontStyle=0;shape=mxgraph.aws4.group;grIcon=mxgraph.aws4.group_security_group;grStroke=0;strokeColor=#147EBA;fillColor=#99CCFF;verticalAlign=top;align=left;spacingLeft=30;fontColor=#147EBA;dashed=0;" parent="rTYvhZJUCBLY7WH3uyob-18" vertex="1">
          <mxGeometry width="320" height="200" as="geometry" />
        </mxCell>
        <mxCell id="rTYvhZJUCBLY7WH3uyob-15" value="" style="group" parent="rTYvhZJUCBLY7WH3uyob-18" vertex="1" connectable="0">
          <mxGeometry x="34.285714285714285" y="50" width="117.14285714285714" height="110" as="geometry" />
        </mxCell>
        <mxCell id="rTYvhZJUCBLY7WH3uyob-11" value="" style="outlineConnect=0;fontColor=#232F3E;gradientColor=none;strokeColor=#ffffff;fillColor=#232F3E;dashed=0;verticalLabelPosition=middle;verticalAlign=bottom;align=center;html=1;whiteSpace=wrap;fontSize=10;fontStyle=1;spacing=3;shape=mxgraph.aws4.productIcon;prIcon=mxgraph.aws4.ec2;" parent="rTYvhZJUCBLY7WH3uyob-15" vertex="1">
          <mxGeometry x="24.285714285714285" width="68.57142857142857" height="60" as="geometry" />
        </mxCell>
        <mxCell id="rTYvhZJUCBLY7WH3uyob-13" value="RabbitMQ&lt;br&gt;Messaging Broker" style="text;html=1;strokeColor=none;fillColor=none;align=center;verticalAlign=middle;whiteSpace=wrap;rounded=0;" parent="rTYvhZJUCBLY7WH3uyob-15" vertex="1">
          <mxGeometry y="60" width="117.14285714285714" height="50" as="geometry" />
        </mxCell>
        <mxCell id="rTYvhZJUCBLY7WH3uyob-16" value="" style="group" parent="rTYvhZJUCBLY7WH3uyob-18" vertex="1" connectable="0">
          <mxGeometry x="182.85714285714283" y="50" width="117.14285714285714" height="110" as="geometry" />
        </mxCell>
        <mxCell id="rTYvhZJUCBLY7WH3uyob-10" value="" style="outlineConnect=0;fontColor=#232F3E;gradientColor=none;strokeColor=#ffffff;fillColor=#232F3E;dashed=0;verticalLabelPosition=middle;verticalAlign=bottom;align=center;html=1;whiteSpace=wrap;fontSize=10;fontStyle=1;spacing=3;shape=mxgraph.aws4.productIcon;prIcon=mxgraph.aws4.elastic_block_store;" parent="rTYvhZJUCBLY7WH3uyob-16" vertex="1">
          <mxGeometry x="24.285714285714285" width="68.57142857142857" height="60" as="geometry" />
        </mxCell>
        <mxCell id="rTYvhZJUCBLY7WH3uyob-14" value="Amazon Elastic Block Storage" style="text;html=1;strokeColor=none;fillColor=none;align=center;verticalAlign=middle;whiteSpace=wrap;rounded=0;" parent="rTYvhZJUCBLY7WH3uyob-16" vertex="1">
          <mxGeometry y="60" width="117.14285714285714" height="50" as="geometry" />
        </mxCell>
        <mxCell id="rTYvhZJUCBLY7WH3uyob-28" style="edgeStyle=orthogonalEdgeStyle;rounded=0;orthogonalLoop=1;jettySize=auto;html=1;" parent="rTYvhZJUCBLY7WH3uyob-18" source="rTYvhZJUCBLY7WH3uyob-11" target="rTYvhZJUCBLY7WH3uyob-10" edge="1">
          <mxGeometry relative="1" as="geometry" />
        </mxCell>
        <mxCell id="rTYvhZJUCBLY7WH3uyob-20" value="" style="group;fillColor=#DEDEDE;" parent="1" vertex="1" connectable="0">
          <mxGeometry x="360" y="160" width="320" height="160" as="geometry" />
        </mxCell>
        <mxCell id="rTYvhZJUCBLY7WH3uyob-6" value="&lt;font color=&quot;#000000&quot;&gt;Public subnet&lt;/font&gt;" style="points=[[0,0],[0.25,0],[0.5,0],[0.75,0],[1,0],[1,0.25],[1,0.5],[1,0.75],[1,1],[0.75,1],[0.5,1],[0.25,1],[0,1],[0,0.75],[0,0.5],[0,0.25]];outlineConnect=0;gradientColor=none;html=1;whiteSpace=wrap;fontSize=12;fontStyle=0;shape=mxgraph.aws4.group;grIcon=mxgraph.aws4.group_security_group;grStroke=0;strokeColor=#1A1A1A;fillColor=#D4D4D4;verticalAlign=top;align=left;spacingLeft=30;fontColor=#248814;dashed=0;shadow=0;" parent="rTYvhZJUCBLY7WH3uyob-20" vertex="1">
          <mxGeometry width="320" height="160" as="geometry" />
        </mxCell>
        <mxCell id="rTYvhZJUCBLY7WH3uyob-19" value="" style="group" parent="rTYvhZJUCBLY7WH3uyob-20" vertex="1" connectable="0">
          <mxGeometry x="91.42857142857142" y="45" width="137.14285714285714" height="95" as="geometry" />
        </mxCell>
        <mxCell id="rTYvhZJUCBLY7WH3uyob-12" value="" style="outlineConnect=0;fontColor=#232F3E;gradientColor=none;strokeColor=#ffffff;fillColor=#232F3E;dashed=0;verticalLabelPosition=middle;verticalAlign=bottom;align=center;html=1;whiteSpace=wrap;fontSize=10;fontStyle=1;spacing=3;shape=mxgraph.aws4.productIcon;prIcon=mxgraph.aws4.network_load_balancer;" parent="rTYvhZJUCBLY7WH3uyob-19" vertex="1">
          <mxGeometry x="28.57142857142857" width="80" height="60" as="geometry" />
        </mxCell>
        <mxCell id="rTYvhZJUCBLY7WH3uyob-23" style="edgeStyle=orthogonalEdgeStyle;rounded=0;orthogonalLoop=1;jettySize=auto;html=1;" parent="1" source="rTYvhZJUCBLY7WH3uyob-21" target="rTYvhZJUCBLY7WH3uyob-12" edge="1">
          <mxGeometry relative="1" as="geometry">
            <Array as="points">
              <mxPoint x="340" y="235" />
              <mxPoint x="340" y="235" />
            </Array>
          </mxGeometry>
        </mxCell>
        <mxCell id="rTYvhZJUCBLY7WH3uyob-21" value="Internet&#xa;gateway" style="outlineConnect=0;fontColor=#232F3E;gradientColor=none;strokeColor=#232F3E;fillColor=#ffffff;dashed=0;verticalLabelPosition=bottom;verticalAlign=top;align=center;html=1;fontSize=12;fontStyle=0;aspect=fixed;shape=mxgraph.aws4.resourceIcon;resIcon=mxgraph.aws4.internet_gateway;shadow=0;" parent="1" vertex="1">
          <mxGeometry x="230" y="195" width="80" height="80" as="geometry" />
        </mxCell>
        <mxCell id="rTYvhZJUCBLY7WH3uyob-17" value="Network Load Balancer&lt;br&gt;" style="text;html=1;strokeColor=none;fillColor=none;align=center;verticalAlign=middle;whiteSpace=wrap;rounded=0;" parent="1" vertex="1">
          <mxGeometry x="560" y="230" width="120" height="20" as="geometry" />
        </mxCell>
        <mxCell id="rTYvhZJUCBLY7WH3uyob-26" style="edgeStyle=orthogonalEdgeStyle;rounded=0;orthogonalLoop=1;jettySize=auto;html=1;" parent="1" source="rTYvhZJUCBLY7WH3uyob-12" target="rTYvhZJUCBLY7WH3uyob-11" edge="1">
          <mxGeometry relative="1" as="geometry">
            <Array as="points">
              <mxPoint x="540" y="390" />
              <mxPoint x="481" y="390" />
            </Array>
          </mxGeometry>
        </mxCell>
      </root>
    </mxGraphModel>
  </diagram>
</mxfile>
